<svg data-noselect="" viewBox="0 0 800 600" width="800" height="600" preserveAspectRatio="none" version="1.1"
  xmlns="http://www.w3.org/2000/svg" xmlns:xlink="http://www.w3.org/1999/xlink" class="svg-canvas">
  <defs></defs>
  <g id="background" data-noselect="">
    <rect fill="#ffffff" width="800" height="600" data-noselect=""></rect>
    <!---->
  </g>
  <g id="shape_rkWT1jTq5h"
    transform="translate(274.31861045499,221.8008903235) rotate(0,87.38692064221,78.199109676504) scale(1,1)" filter=""
    style="opacity: 1;">
    <g>
      <rect fill="rgba(0,0,0,0)" width="194.77384128442" height="176.39821935301" x="-10" y="-10"></rect><svg
        version="1.1" id="图层_1" xmlns="http://www.w3.org/2000/svg" xmlns:xlink="http://www.w3.org/1999/xlink" x="0px"
        y="0px" width="174.77384128442" height="156.39821935301" viewBox="0 0 123.36 110.39"
        style="enable-background:new 0 0 123.36 110.39;" xml:space="preserve" class="style-removed"
        preserveAspectRatio="none" data-parent="shape_rkWT1jTq5h">

        <g>
          <path d="M121.35,22.1c-7.26-8.37-16.64-15.03-27.22-18.75c-1.31-0.5-2.66-0.86-4-1.27c-1.47-0.42-2.81-0.67-4.19-0.93
		c-2.74-0.49-5.47-0.8-8.22-0.99c-5.5-0.35-11.05-0.14-16.54,0.79C50.21,2.69,39.43,7.68,31.32,15.59
		c-2.98,2.89-5.63,6.07-7.93,9.49c-3.34,1.29-7.55,3.46-11.56,7.19C1.3,42.03,0.19,55,0,58.32c0.33-0.52,3.45-5.23,8.99-5.68
		c1.66-0.13,3.17,0.15,4.41,0.53c-0.22,2.66-0.25,5.34-0.05,8.01c0.4,5.65,1.75,11.26,3.99,16.47c2.23,5.21,5.34,10.06,9.16,14.26
		c3.81,4.2,8.31,7.73,13.17,10.53c4.87,2.8,10.11,4.89,15.54,6.23c5.42,1.36,11.07,1.95,16.7,1.66c11.3-0.53,22.18-4.58,31.31-10.98
		c1.35-0.95,2.7-1.9,4.05-2.85c-2.93-1.29-5.85-2.59-8.78-3.88l-0.01,0.01c-7.93,5.57-17.39,9.06-26.98,9.49
		c-9.56,0.49-19.4-2.02-27.75-6.81c-8.38-4.77-15.15-12.09-18.87-20.89c-3.8-8.76-4.43-18.72-2.09-28.07
		c2.3-9.34,7.3-18.18,14.21-24.83c6.89-6.69,15.9-10.91,25.52-12.46c4.8-0.82,9.74-1,14.65-0.69c2.45,0.17,4.91,0.45,7.31,0.88
		C85.68,9.46,86.9,9.7,87.94,10c1.15,0.36,2.33,0.66,3.46,1.1c8.22,2.88,15.68,7.89,21.76,14.24c-2.76,4.44-6.11,8.52-10.06,11.98
		c-2.37,2.08-4.94,3.94-7.69,5.51c-1.37,0.8-2.8,1.49-4.25,2.16c-1.53,0.67-3.02,1.32-4.54,1.9c-3.03,1.16-6.12,2.11-9.27,2.52
		c-3.14,0.42-6.36,0.29-9.31-0.79c-2.94-1.08-5.55-3.15-7.4-5.84c-1.86-2.69-3.03-5.87-3.67-9.16c0.3,3.33,1.14,6.67,2.8,9.7
		c1.64,3.02,4.24,5.62,7.46,7.19c3.22,1.57,6.86,2.09,10.37,1.98c3.53-0.1,6.98-0.79,10.31-1.69c1.66-0.45,3.31-0.97,4.91-1.49
		c1.66-0.57,3.31-1.17,4.92-1.9c3.22-1.43,6.31-3.2,9.2-5.26c5.79-4.11,10.77-9.34,14.83-15.2l1.62-2.55L121.35,22.1z"
            fill="#00c0ef" stroke-width="0"></path>
          <path d="M87.12,29.97c1.86-0.24,3.17-1.95,2.93-3.81c-0.24-1.86-1.95-3.17-3.81-2.93c-1.86,0.24-3.17,1.95-2.93,3.81
		C83.55,28.9,85.26,30.21,87.12,29.97z" fill="#00c0ef" stroke-width="0"></path>
          <path d="M100.81,103.89c-2.64,1.47-5.14,2.54-7.34,3.33c2.41,0.68,6.43,1.48,11.31,0.8c7.29-1.01,12.2-4.71,14.24-6.45
		c-3.14-1.3-6.29-2.6-9.43-3.9C107.38,99.63,104.47,101.86,100.81,103.89z" fill="#00c0ef" stroke-width="0"></path>
        </g>
      </svg>
    </g>
  </g>
  <g id="shape_JasIXggxeO" transform="translate(316.09245173941,225.19948484849) rotate(0,73.5,98.149) scale(1,1)"
    filter="" style="opacity: 1;">
    <g><svg xmlns="http://www.w3.org/2000/svg" version="1.1" xmlns:xlink="http://www.w3.org/1999/xlink" width="201"
        height="196.298" viewBox="0 0 201 196.298" data-parent="shape_JasIXggxeO">
        <rect fill="rgba(0,0,0,0)" width="93" height="25" x="27" y="85.649"></rect>
        <g data-width="85.3335" transform="translate(27, 0)">
          <path
            d="M4.32 0L1.90 0L1.90-13.68L3.35-13.68Q3.86-13.68 3.98-13.18L3.98-13.18L4.16-11.77Q4.91-12.70 5.86-13.30Q6.80-13.89 8.05-13.89L8.05-13.89Q9.42-13.89 10.28-13.12Q11.14-12.35 11.52-11.04L11.52-11.04Q11.81-11.79 12.28-12.33Q12.74-12.87 13.32-13.22Q13.90-13.57 14.56-13.73Q15.21-13.89 15.89-13.89L15.89-13.89Q16.97-13.89 17.81-13.55Q18.66-13.20 19.24-12.54Q19.83-11.88 20.14-10.91Q20.45-9.95 20.45-8.71L20.45-8.71L20.45 0L18.04 0L18.04-8.71Q18.04-10.31 17.33-11.14Q16.63-11.97 15.31-11.97L15.31-11.97Q14.71-11.97 14.18-11.77Q13.65-11.56 13.24-11.15Q12.84-10.75 12.60-10.13Q12.37-9.52 12.37-8.71L12.37-8.71L12.37 0L9.95 0L9.95-8.71Q9.95-10.35 9.29-11.16Q8.63-11.97 7.36-11.97L7.36-11.97Q6.47-11.97 5.71-11.50Q4.95-11.02 4.32-10.19L4.32-10.19L4.32 0Z"
            transform="translate(0 107.649) " fill="#5C5C5C" stroke="#5C5C5C" stroke-width="0.045"
            data-glyph-w="22.2075" data-glyph-h="32.4" data-glyph-ascender="26.649" data-glyph-descender="-5.751">
          </path>
          <path
            d="M7.67-13.89L7.67-13.89Q9.17-13.89 10.37-13.39Q11.57-12.89 12.42-11.97Q13.27-11.06 13.72-9.75Q14.18-8.45 14.18-6.84L14.18-6.84Q14.18-5.22 13.72-3.93Q13.27-2.63 12.42-1.71Q11.57-0.80 10.37-0.30Q9.17 0.19 7.67 0.19L7.67 0.19Q6.16 0.19 4.95-0.30Q3.74-0.80 2.89-1.71Q2.04-2.63 1.59-3.93Q1.13-5.22 1.13-6.84L1.13-6.84Q1.13-8.45 1.59-9.75Q2.04-11.06 2.89-11.97Q3.74-12.89 4.95-13.39Q6.16-13.89 7.67-13.89ZM7.67-1.69L7.67-1.69Q9.69-1.69 10.69-3.04Q11.69-4.40 11.69-6.83L11.69-6.83Q11.69-9.27 10.69-10.64Q9.69-12.00 7.67-12.00L7.67-12.00Q6.64-12.00 5.88-11.65Q5.12-11.30 4.61-10.64Q4.10-9.98 3.85-9.01Q3.60-8.05 3.60-6.83L3.60-6.83Q3.60-4.40 4.61-3.04Q5.62-1.69 7.67-1.69Z"
            transform="translate(22.2075 107.649) " fill="#5C5C5C" stroke="#5C5C5C" stroke-width="0.045"
            data-glyph-w="15.309" data-glyph-h="32.4" data-glyph-ascender="26.649" data-glyph-descender="-5.751"></path>
          <path
            d="M1.46-19.35L14.59-19.35L14.59-18.27Q14.59-17.81 14.49-17.51Q14.39-17.21 14.30-17.01L14.30-17.01L6.28-0.85Q6.10-0.50 5.79-0.25Q5.48 0 4.97 0L4.97 0L3.24 0L11.37-15.96Q11.54-16.29 11.73-16.58Q11.92-16.86 12.14-17.12L12.14-17.12L2.04-17.12Q1.81-17.12 1.63-17.30Q1.46-17.48 1.46-17.71L1.46-17.71L1.46-19.35Z"
            transform="translate(37.5165 107.649) " fill="#5C5C5C" stroke="#5C5C5C" stroke-width="0.045"
            data-glyph-w="15.66" data-glyph-h="32.4" data-glyph-ascender="26.649" data-glyph-descender="-5.751"></path>
          <path
            d="M1.50-1.48L1.50-1.48Q1.50-1.84 1.63-2.15Q1.75-2.46 1.98-2.69Q2.20-2.92 2.51-3.05Q2.82-3.19 3.17-3.19L3.17-3.19Q3.52-3.19 3.83-3.05Q4.14-2.92 4.37-2.69Q4.60-2.46 4.74-2.15Q4.87-1.84 4.87-1.48L4.87-1.48Q4.87-1.12 4.74-0.82Q4.60-0.51 4.37-0.28Q4.14-0.05 3.83 0.07Q3.52 0.20 3.17 0.20L3.17 0.20Q2.82 0.20 2.51 0.07Q2.20-0.05 1.98-0.28Q1.75-0.51 1.63-0.82Q1.50-1.12 1.50-1.48Z"
            transform="translate(53.176500000000004 107.649) " fill="#5C5C5C" stroke="#5C5C5C" stroke-width="0.045"
            data-glyph-w="6.372" data-glyph-h="32.4" data-glyph-ascender="26.649" data-glyph-descender="-5.751"></path>
          <path
            d="M12.06-12.11L11.42-11.25Q11.31-11.10 11.21-11.02Q11.10-10.94 10.91-10.94L10.91-10.94Q10.71-10.94 10.46-11.10Q10.22-11.27 9.86-11.47Q9.50-11.68 8.98-11.85Q8.46-12.02 7.71-12.02L7.71-12.02Q6.70-12.02 5.93-11.66Q5.16-11.30 4.64-10.62Q4.12-9.95 3.85-8.99Q3.59-8.03 3.59-6.84L3.59-6.84Q3.59-5.60 3.87-4.64Q4.16-3.67 4.68-3.02Q5.20-2.36 5.93-2.02Q6.67-1.67 7.59-1.67L7.59-1.67Q8.46-1.67 9.03-1.88Q9.60-2.09 9.97-2.35Q10.34-2.61 10.59-2.81Q10.84-3.02 11.08-3.02L11.08-3.02Q11.38-3.02 11.54-2.79L11.54-2.79L12.22-1.92Q11.77-1.36 11.21-0.97Q10.64-0.58 9.98-0.32Q9.33-0.05 8.61 0.07Q7.90 0.19 7.16 0.19L7.16 0.19Q5.87 0.19 4.77-0.28Q3.67-0.76 2.86-1.65Q2.05-2.55 1.59-3.86Q1.13-5.17 1.13-6.84L1.13-6.84Q1.13-8.37 1.56-9.67Q1.98-10.96 2.80-11.90Q3.62-12.84 4.81-13.37Q6.01-13.89 7.56-13.89L7.56-13.89Q9.00-13.89 10.10-13.43Q11.21-12.96 12.06-12.11L12.06-12.11Z"
            transform="translate(59.548500000000004 107.649) " fill="#5C5C5C" stroke="#5C5C5C" stroke-width="0.045"
            data-glyph-w="12.8925" data-glyph-h="32.4" data-glyph-ascender="26.649" data-glyph-descender="-5.751">
          </path>
          <path
            d="M12.06-12.11L11.42-11.25Q11.31-11.10 11.21-11.02Q11.10-10.94 10.91-10.94L10.91-10.94Q10.71-10.94 10.46-11.10Q10.22-11.27 9.86-11.47Q9.50-11.68 8.98-11.85Q8.46-12.02 7.71-12.02L7.71-12.02Q6.70-12.02 5.93-11.66Q5.16-11.30 4.64-10.62Q4.12-9.95 3.85-8.99Q3.59-8.03 3.59-6.84L3.59-6.84Q3.59-5.60 3.87-4.64Q4.16-3.67 4.68-3.02Q5.20-2.36 5.93-2.02Q6.67-1.67 7.59-1.67L7.59-1.67Q8.46-1.67 9.03-1.88Q9.60-2.09 9.97-2.35Q10.34-2.61 10.59-2.81Q10.84-3.02 11.08-3.02L11.08-3.02Q11.38-3.02 11.54-2.79L11.54-2.79L12.22-1.92Q11.77-1.36 11.21-0.97Q10.64-0.58 9.98-0.32Q9.33-0.05 8.61 0.07Q7.90 0.19 7.16 0.19L7.16 0.19Q5.87 0.19 4.77-0.28Q3.67-0.76 2.86-1.65Q2.05-2.55 1.59-3.86Q1.13-5.17 1.13-6.84L1.13-6.84Q1.13-8.37 1.56-9.67Q1.98-10.96 2.80-11.90Q3.62-12.84 4.81-13.37Q6.01-13.89 7.56-13.89L7.56-13.89Q9.00-13.89 10.10-13.43Q11.21-12.96 12.06-12.11L12.06-12.11Z"
            transform="translate(72.441 107.649) " fill="#5C5C5C" stroke="#5C5C5C" stroke-width="0.045"
            data-glyph-w="12.8925" data-glyph-h="32.4" data-glyph-ascender="26.649" data-glyph-descender="-5.751">
          </path>
        </g>
      </svg></g>
  </g>
</svg>