<svg xmlns="http://www.w3.org/2000/svg" xmlns:xlink="http://www.w3.org/1999/xlink" viewBox="0 0 123.36 110.39"
      data-color="http://zhongguose.com/#chaolan">
      <path fill="#2983bb"
            d="M121.35 22.1c-7.26-8.37-16.64-15.03-27.22-18.75-1.31-.5-2.66-.86-4-1.27-1.47-.42-2.81-.67-4.19-.93-2.74-.49-5.47-.8-8.22-.99-5.5-.35-11.05-.14-16.54.79-10.97 1.74-21.75 6.73-29.86 14.64a59.329 59.329 0 00-7.93 9.49c-3.34 1.29-7.55 3.46-11.56 7.19C1.3 42.03.19 55 0 58.32c.33-.52 3.45-5.23 8.99-5.68 1.66-.13 3.17.15 4.41.53-.22 2.66-.25 5.34-.05 8.01.4 5.65 1.75 11.26 3.99 16.47a51.186 51.186 0 009.16 14.26c3.81 4.2 8.31 7.73 13.17 10.53 4.87 2.8 10.11 4.89 15.54 6.23 5.42 1.36 11.07 1.95 16.7 1.66 11.3-.53 22.18-4.58 31.31-10.98l4.05-2.85c-2.93-1.29-5.85-2.59-8.78-3.88l-.01.01c-7.93 5.57-17.39 9.06-26.98 9.49-9.56.49-19.4-2.02-27.75-6.81-8.38-4.77-15.15-12.09-18.87-20.89-3.8-8.76-4.43-18.72-2.09-28.07 2.3-9.34 7.3-18.18 14.21-24.83 6.89-6.69 15.9-10.91 25.52-12.46 4.8-.82 9.74-1 14.65-.69 2.45.17 4.91.45 7.31.88 1.2.21 2.42.45 3.46.75 1.15.36 2.33.66 3.46 1.1 8.22 2.88 15.68 7.89 21.76 14.24-2.76 4.44-6.11 8.52-10.06 11.98a47.033 47.033 0 01-7.69 5.51c-1.37.8-2.8 1.49-4.25 2.16-1.53.67-3.02 1.32-4.54 1.9-3.03 1.16-6.12 2.11-9.27 2.52-3.14.42-6.36.29-9.31-.79-2.94-1.08-5.55-3.15-7.4-5.84-1.86-2.69-3.03-5.87-3.67-9.16.3 3.33 1.14 6.67 2.8 9.7 1.64 3.02 4.24 5.62 7.46 7.19 3.22 1.57 6.86 2.09 10.37 1.98 3.53-.1 6.98-.79 10.31-1.69 1.66-.45 3.31-.97 4.91-1.49 1.66-.57 3.31-1.17 4.92-1.9 3.22-1.43 6.31-3.2 9.2-5.26 5.79-4.11 10.77-9.34 14.83-15.2l1.62-2.55-2.04-2.3z" />
      <path fill="#2983bb"
            d="M87.12 29.97a3.4 3.4 0 002.93-3.81 3.4 3.4 0 00-3.81-2.93 3.4 3.4 0 00-2.93 3.81 3.4 3.4 0 003.81 2.93zM100.81 103.89a49.384 49.384 0 01-7.34 3.33c2.41.68 6.43 1.48 11.31.8 7.29-1.01 12.2-4.71 14.24-6.45-3.14-1.3-6.29-2.6-9.43-3.9a49.198 49.198 0 01-8.78 6.22z" />
</svg>