<svg width="800" height="600">
  <g transform="translate(37.996362356535,25.839967926325) rotate(0,123.48682931608,77.910032073678) scale(1,1)">
    <svg viewBox="0 0 211.6 131.9" width="246.97365863215" height="155.82006414736" preserveAspectRatio="none">
      <g>
        <polygon points="211.6,48.7 0,48.7 112.2,131.9 89.3,83.8 90.9,101.1 44.7,63.6 	" fill="#de283e"></polygon>
        <polygon points="56.2,42.4 68.7,0 82.7,47.7 	" fill="#de283e" stroke-width="0"></polygon>
        <polygon points="43.2,83 26.6,130.2 61.7,103.7 	" fill="#de283e" stroke-width="0"></polygon>
      </g>
    </svg>
  </g>
  <g transform="translate(93.94363764347,-149.57996792632503) rotate(0,216.06,277.74) scale(1,1)">
    <svg width="584.24" height="555.48" viewBox="0 0 584.24 555.48">
      <g transform="translate(76.06, 0)">
        <path
          d="M28.90-8.75L40.46-8.75L45.33-43.28L35.06-43.28L36.20-51.19L69.44-51.19L68.30-43.28L58.26-43.28L53.39-8.75L64.88-8.75L63.74-0.68L27.76-0.68L28.90-8.75ZM4.49-29.51L5.48-36.74L16.51-52.18L14.53-54.08L31.56-54.08L19.24-36.74L30.20-36.74L18.10-20.92L27.84-20.92L26.85-13.69L2.28-13.69L3.27-20.92L10.27-29.51L4.49-29.51ZM26.16-9.28L25.10-2.05L0.46-0.61L1.45-7.83L26.16-9.28Z"
          transform="translate(0 304.24) " fill="#711e6f" stroke="#711e6f" stroke-width="0.127" data-glyph-w="69.9752"
          data-glyph-h="98.878" data-glyph-ascender="76.06" data-glyph-descender="-22.818"></path>
        <path
          d="M5.86-16.96L10.65-28.60L19.78-28.60L18.79-26.09L28.60-26.09L29.28-30.88L8.67-30.88L11.26-49.59L8.98-52.63L67.77-52.63L64.73-30.88L44.65-30.88L43.96-26.09L64.27-26.09L63.28-19.24L42.97-19.24L42.52-15.97L62.75-15.97L61.84-9.43L41.60-9.43L41.30-7.15L64.96-7.15L64.04-0.68L2.21-0.68L3.12-7.15L25.94-7.15L26.24-9.43L7.83-9.43L8.75-15.97L27.15-15.97L27.61-19.24L16.12-19.24L15.29-16.96L5.86-16.96ZM25.71-47.01L25.33-44.72L52.18-44.72L52.56-47.01L25.71-47.01ZM24.26-36.97L51.11-36.97L51.42-39.17L24.57-39.17L24.26-36.97Z"
          transform="translate(69.9752 304.24) " fill="#711e6f" stroke="#711e6f" stroke-width="0.127"
          data-glyph-w="69.9752" data-glyph-h="98.878" data-glyph-ascender="76.06" data-glyph-descender="-22.818">
        </path>
        <path
          d="M43.73 0.53L50.28-5.32L55.83-44.65L24.19-44.65L25.18-51.87L68.61-51.87L61.91-4.49Q61.61-2.28 59.90-0.87Q58.19 0.53 56.06 0.53L56.06 0.53L43.73 0.53ZM29.36-35.22L29.44-35.22L32.71-41.30L45.03-41.30L41.15-34.15L49.82-9.51L38.18-9.51L34.15-21.14L27.91-9.43L15.74-9.43L29.36-35.06L29.36-35.22ZM7.23-41.83L18.94-41.83L13.01 0.68L1.29 0.68L7.23-41.83ZM8.06-52.63L19.78-52.63L20.00-43.66L8.29-43.66L8.06-52.63Z"
          transform="translate(139.9504 304.24) " fill="#711e6f" stroke="#711e6f" stroke-width="0.127"
          data-glyph-w="69.9752" data-glyph-h="98.878" data-glyph-ascender="76.06" data-glyph-descender="-22.818">
        </path>
        <path
          d="M45.86-31.72L55.75-31.72L56.51-29.59L67.08-29.59L66.40-24.49L57.05-24.49L56.66-21.68L66.10-21.68L65.34-16.43L55.90-16.43L55.52-13.69L64.96-13.69L64.27-8.67L54.76-8.67L54.38-5.78L63.81-5.78L63.13-0.68L35.82-0.68L35.67 0.61L26.85 0.61L29.97-21.22L26.93-20.23L28.07-28.29L40.31-31.87L39.93-29.59L46.47-29.59L45.86-31.72ZM4.41-33.92L11.41-33.92L13.84-51.11L11.79-54.00L23.58-54.00L20.69-33.92L27.61-33.92L26.62-26.77L23.81-26.77L21.30-8.90L23.20-8.90L25.71-11.26L24.19-0.91L11.71-0.91L15.36-26.77L14.30-26.77L7.99-0.08L-0.46-0.08L5.86-26.77L3.42-26.77L4.41-33.92ZM38.56-33.09L40.92-37.04L42.44-47.77L30.80-47.77L31.49-52.56L50.58-52.56L48.30-36.28Q47.99-34.53 47.16-33.81Q46.32-33.09 44.80-33.09L44.80-33.09L38.56-33.09ZM57.96-33.09L60.77-36.97L62.29-47.77L51.19-47.77L51.87-52.56L70.43-52.56L68.15-36.20Q67.85-34.46 67.05-33.77Q66.25-33.09 64.73-33.09L64.73-33.09L57.96-33.09ZM21.37-36.13L24.64-48.68L23.27-50.58L30.42-50.58L26.47-36.13L21.37-36.13ZM11.87-50.66L11.18-36.13L6.01-36.13L6.69-50.66L11.87-50.66ZM32.78-39.70L39.86-39.70L37.19-33.16L29.82-33.16L32.78-39.70ZM52.63-39.63L59.33-39.63L56.89-33.09L50.05-33.09L52.63-39.63ZM31.72-46.70L39.17-46.70L39.93-40.84L32.86-40.84L31.72-46.70ZM51.95-46.70L58.64-46.70L59.48-40.84L52.79-40.84L51.95-46.70ZM36.97-8.67L36.58-5.78L44.27-5.78L44.65-8.67L36.97-8.67ZM39.25-24.49L38.87-21.68L46.55-21.68L46.93-24.49L39.25-24.49ZM38.11-16.43L37.73-13.69L45.41-13.69L45.79-16.43L38.11-16.43Z"
          transform="translate(209.9256 304.24) " fill="#711e6f" stroke="#711e6f" stroke-width="0.127"
          data-glyph-w="69.9752" data-glyph-h="98.878" data-glyph-ascender="76.06" data-glyph-descender="-22.818">
        </path>
      </g>
    </svg>
  </g>
</svg>