<svg xmlns="http://www.w3.org/2000/svg" xmlns:xlink="http://www.w3.org/1999/xlink" viewBox="0 0 93.6 93.6">
  <path d="M58.8,20.2c-0.5-2.9-2.9-5.1-5.6-5.2c-1.5,0-2.9,0.4-4.1,1.1c-0.2,0.1-0.4,0.2-0.7,0.3
  c-0.5,0.1-1.1,0.1-1.6-0.1c-0.1,0-0.2-0.1-0.3-0.1c-0.8-0.5-1.3-1.3-1.3-2.3V0H0v45.2h45.2V31.3c0-0.9,0.5-1.8,1.3-2.3
  c0.1,0,0.2-0.1,0.3-0.1c0.5-0.2,1.1-0.3,1.6-0.1c0.2,0.1,0.5,0.2,0.7,0.3c1.2,0.7,2.5,1.1,3.9,1.1c1.8,0,3.2-0.6,4.2-1.8
  C58.8,26.6,59.3,23.6,58.8,20.2z" fill="#F8B302"></path>
  <path d="M48.4,0v12.9c1.5-0.7,3.2-1.1,4.9-1c4.3,0.1,8,3.5,8.7,7.9c0.7,4.3-0.1,8.2-2.3,10.7c-1.6,1.9-3.9,2.9-6.6,2.9
		c-1.6,0-3.2-0.4-4.6-1v12.9h45.2V0H48.4z" fill="#0A378C"></path>
  <path d="M33.6,78.9c-2.1-2.5-3-6.4-2.3-10.7c0.7-4.5,4.6-7.9,9-7.9c0,0,0.1,0,0.1,0c1.7,0,3.3,0.4,4.8,1.2v-13H0v45.2
  h45.2v-13c-1.5,0.8-3.2,1.2-4.9,1.2C37.6,81.8,35.3,80.8,33.6,78.9z" fill="#0D8E32"></path>
  <path d="M48.4,48.4v13.9c0,1-0.5,1.9-1.4,2.4c-0.1,0-0.1,0.1-0.2,0.1c-0.5,0.2-1.1,0.3-1.6,0.2
		c-0.3-0.1-0.6-0.2-0.9-0.3c-1.2-0.7-2.5-1.1-3.9-1.2c0,0,0,0-0.1,0c-2.8,0-5.3,2.2-5.8,5.2C34,72,34.6,75,36.1,76.8
		c1,1.2,2.4,1.8,4.2,1.8c1.4,0,2.8-0.4,4-1.2c0.3-0.2,0.6-0.3,0.9-0.3c0.5-0.1,1.1,0,1.6,0.2c0.1,0,0.1,0,0.2,0.1
		c0.9,0.5,1.4,1.4,1.4,2.4v13.9h45.2V48.4H48.4z" fill="#E6051F"></path>
  <text x="16" y="34" font-size="24" fill="#E6051F">A</text>
  <text x="57" y="76" font-size="24" fill="#F8B302">M</text>
  <text x="64" y="34" font-size="22" fill="#F8B302">$</text>
  <text x="12" y="76" font-size="22" fill="#F8B302">￥</text>
</svg>