<svg data-noselect="" viewBox="0 0 800 600" width="800" height="600" preserveAspectRatio="none" version="1.1"
  xmlns="http://www.w3.org/2000/svg" xmlns:xlink="http://www.w3.org/1999/xlink" class="svg-canvas">
  <defs></defs>
  <g id="background" data-noselect="">
    <rect fill="#ffffff" width="800" height="600" data-noselect=""></rect>
    <!---->
  </g>
  <g id="shape_rkWT1jTq5h"
    transform="translate(274.31861045499,221.8008903235) rotate(0,87.38692064221,78.199109676504) scale(1,1)" filter=""
    style="opacity: 1;">
    <g>
      <rect fill="rgba(0,0,0,0)" width="194.77384128442" height="176.39821935301" x="-10" y="-10"></rect><svg
        version="1.1" id="图层_1" xmlns="http://www.w3.org/2000/svg" xmlns:xlink="http://www.w3.org/1999/xlink" x="0px"
        y="0px" width="174.77384128442" height="156.39821935301" viewBox="0 0 123.36 110.39"
        style="enable-background:new 0 0 123.36 110.39;" xml:space="preserve" class="style-removed"
        preserveAspectRatio="none" data-parent="shape_rkWT1jTq5h">

        <g>
          <path d="M121.35,22.1c-7.26-8.37-16.64-15.03-27.22-18.75c-1.31-0.5-2.66-0.86-4-1.27c-1.47-0.42-2.81-0.67-4.19-0.93
		c-2.74-0.49-5.47-0.8-8.22-0.99c-5.5-0.35-11.05-0.14-16.54,0.79C50.21,2.69,39.43,7.68,31.32,15.59
		c-2.98,2.89-5.63,6.07-7.93,9.49c-3.34,1.29-7.55,3.46-11.56,7.19C1.3,42.03,0.19,55,0,58.32c0.33-0.52,3.45-5.23,8.99-5.68
		c1.66-0.13,3.17,0.15,4.41,0.53c-0.22,2.66-0.25,5.34-0.05,8.01c0.4,5.65,1.75,11.26,3.99,16.47c2.23,5.21,5.34,10.06,9.16,14.26
		c3.81,4.2,8.31,7.73,13.17,10.53c4.87,2.8,10.11,4.89,15.54,6.23c5.42,1.36,11.07,1.95,16.7,1.66c11.3-0.53,22.18-4.58,31.31-10.98
		c1.35-0.95,2.7-1.9,4.05-2.85c-2.93-1.29-5.85-2.59-8.78-3.88l-0.01,0.01c-7.93,5.57-17.39,9.06-26.98,9.49
		c-9.56,0.49-19.4-2.02-27.75-6.81c-8.38-4.77-15.15-12.09-18.87-20.89c-3.8-8.76-4.43-18.72-2.09-28.07
		c2.3-9.34,7.3-18.18,14.21-24.83c6.89-6.69,15.9-10.91,25.52-12.46c4.8-0.82,9.74-1,14.65-0.69c2.45,0.17,4.91,0.45,7.31,0.88
		C85.68,9.46,86.9,9.7,87.94,10c1.15,0.36,2.33,0.66,3.46,1.1c8.22,2.88,15.68,7.89,21.76,14.24c-2.76,4.44-6.11,8.52-10.06,11.98
		c-2.37,2.08-4.94,3.94-7.69,5.51c-1.37,0.8-2.8,1.49-4.25,2.16c-1.53,0.67-3.02,1.32-4.54,1.9c-3.03,1.16-6.12,2.11-9.27,2.52
		c-3.14,0.42-6.36,0.29-9.31-0.79c-2.94-1.08-5.55-3.15-7.4-5.84c-1.86-2.69-3.03-5.87-3.67-9.16c0.3,3.33,1.14,6.67,2.8,9.7
		c1.64,3.02,4.24,5.62,7.46,7.19c3.22,1.57,6.86,2.09,10.37,1.98c3.53-0.1,6.98-0.79,10.31-1.69c1.66-0.45,3.31-0.97,4.91-1.49
		c1.66-0.57,3.31-1.17,4.92-1.9c3.22-1.43,6.31-3.2,9.2-5.26c5.79-4.11,10.77-9.34,14.83-15.2l1.62-2.55L121.35,22.1z"
            fill="#00c0ef" stroke-width="0"></path>
          <path d="M87.12,29.97c1.86-0.24,3.17-1.95,2.93-3.81c-0.24-1.86-1.95-3.17-3.81-2.93c-1.86,0.24-3.17,1.95-2.93,3.81
		C83.55,28.9,85.26,30.21,87.12,29.97z" fill="#00c0ef" stroke-width="0"></path>
          <path d="M100.81,103.89c-2.64,1.47-5.14,2.54-7.34,3.33c2.41,0.68,6.43,1.48,11.31,0.8c7.29-1.01,12.2-4.71,14.24-6.45
		c-3.14-1.3-6.29-2.6-9.43-3.9C107.38,99.63,104.47,101.86,100.81,103.89z" fill="#00c0ef" stroke-width="0"></path>
        </g>
      </svg>
    </g>
  </g>
  <g id="shape_JasIXggxeO" transform="translate(316.09245173941,223.28248484849) rotate(0,73.5,100.066) scale(1,1)"
    filter="" style="opacity: 1;">
    <g><svg xmlns="http://www.w3.org/2000/svg" version="1.1" xmlns:xlink="http://www.w3.org/1999/xlink" width="201"
        height="200.132" viewBox="0 0 201 200.132">
        <g data-width="86.34599999999999" transform="translate(27, 0)">
          <path
            d="M17.33-8.29L17.33 0L19.52 0L19.52-8.83C19.52-11.45 18.14-13.31 15.47-13.31C14.88-13.31 14.23-13.20 13.55-13.01C12.96-12.85 12.07-12.39 10.91-11.61C10.23-12.58 9.10-13.31 7.56-13.31C6.99-13.31 6.40-13.23 5.75-13.04C5.21-12.88 4.48-12.55 3.59-11.99L3.16-12.96L1.62-12.96L1.62 0L3.83 0L3.83-10.50C5.00-11.15 6.02-11.50 6.86-11.50C8.69-11.50 9.42-10.29 9.42-8.29L9.42 0L11.61 0L11.61-8.83C11.61-9.45 11.58-9.96 11.47-10.34C12.74-11.10 13.85-11.50 14.77-11.50C16.58-11.50 17.33-10.29 17.33-8.29Z"
            transform="translate(0 109.566) " fill="rgb(51, 51, 51)" stroke="rgb(51, 51, 51)" stroke-width="0.045"
            data-glyph-w="21.141" data-glyph-h="36.288" data-glyph-ascender="28.566"
            data-glyph-descender="-7.7219999999999995"></path>
          <path
            d="M7.51-11.50C10.15-11.50 11.53-9.26 11.53-6.48C11.53-3.70 10.18-1.48 7.51-1.48C4.86-1.48 3.48-3.73 3.48-6.48C3.48-9.23 4.89-11.50 7.51-11.50ZM7.45 0.27C11.45 0.27 13.77-2.46 13.77-6.51C13.77-10.58 11.56-13.23 7.53-13.23C3.54-13.23 1.24-10.56 1.24-6.48C1.24-2.43 3.46 0.27 7.45 0.27Z"
            transform="translate(21.141 109.566) " fill="rgb(51, 51, 51)" stroke="rgb(51, 51, 51)" stroke-width="0.045"
            data-glyph-w="15.363" data-glyph-h="36.288" data-glyph-ascender="28.566"
            data-glyph-descender="-7.7219999999999995"></path>
          <path d="M15.42-18.74L1.73-18.74L1.73-16.63L12.66-16.63L4.05 0L6.67 0L15.42-17.33Z"
            transform="translate(36.504 109.566) " fill="rgb(51, 51, 51)" stroke="rgb(51, 51, 51)" stroke-width="0.045"
            data-glyph-w="17.118" data-glyph-h="36.288" data-glyph-ascender="28.566"
            data-glyph-descender="-7.7219999999999995"></path>
          <path d="M2.38-2.78L2.38 0L5.13 0L5.13-2.78Z" transform="translate(53.622 109.566) " fill="rgb(51, 51, 51)"
            stroke="rgb(51, 51, 51)" stroke-width="0.045" data-glyph-w="7.506" data-glyph-h="36.288"
            data-glyph-ascender="28.566" data-glyph-descender="-7.7219999999999995"></path>
          <path
            d="M7.70 0.27L7.83 0.27C8.96 0.27 10.13 0.03 11.37-0.46L10.85-1.94C10.02-1.65 9.21-1.51 8.48-1.51C8.26-1.51 8.07-1.51 7.88-1.54C5.00-1.89 3.65-3.48 3.65-6.67C3.65-9.72 5.16-11.42 8.26-11.42C9.04-11.42 9.99-11.26 10.99-10.91L11.53-12.47C10.34-12.99 9.21-13.26 8.15-13.26C5.89-13.26 4.24-12.61 3.13-11.29C2.08-10.02 1.54-8.37 1.54-6.29C1.54-2.16 3.67 0.27 7.70 0.27Z"
            transform="translate(61.128 109.566) " fill="rgb(51, 51, 51)" stroke="rgb(51, 51, 51)" stroke-width="0.045"
            data-glyph-w="12.609" data-glyph-h="36.288" data-glyph-ascender="28.566"
            data-glyph-descender="-7.7219999999999995"></path>
          <path
            d="M7.70 0.27L7.83 0.27C8.96 0.27 10.13 0.03 11.37-0.46L10.85-1.94C10.02-1.65 9.21-1.51 8.48-1.51C8.26-1.51 8.07-1.51 7.88-1.54C5.00-1.89 3.65-3.48 3.65-6.67C3.65-9.72 5.16-11.42 8.26-11.42C9.04-11.42 9.99-11.26 10.99-10.91L11.53-12.47C10.34-12.99 9.21-13.26 8.15-13.26C5.89-13.26 4.24-12.61 3.13-11.29C2.08-10.02 1.54-8.37 1.54-6.29C1.54-2.16 3.67 0.27 7.70 0.27Z"
            transform="translate(73.737 109.566) " fill="rgb(51, 51, 51)" stroke="rgb(51, 51, 51)" stroke-width="0.045"
            data-glyph-w="12.609" data-glyph-h="36.288" data-glyph-ascender="28.566"
            data-glyph-descender="-7.7219999999999995"></path>
        </g>
      </svg></g>
  </g>
</svg>